PathFileType	4	(X/Y/Z)	C:\Users\WrightLab\Desktop\Jo\P3_32.trc
DataRate	CameraRate	NumFrames	NumMarkers	Units	OrigDataRate	OrigDataStartFrame	OrigNumFrames
100.00	100.00	       8	19	mm	100.00	336	       671
Frame#	Time	Headset_Front			Headset_Back			Headset_Left			Headset_Right			Left_Shoulder			Right_Shoulder			Sternum			C7			Left Elbow			Right Elbow			Left Wrist			Right Wrist			Left ASIS			Right ASIS			S2			Left Knee			Right Knee			Left Ankle			Right Ankle			
		X1	Y1	Z1	X2	Y2	Z2	X3	Y3	Z3	X4	Y4	Z4	X5	Y5	Z5	X6	Y6	Z6	X7	Y7	Z7	X8	Y8	Z8	X9	Y9	Z9	X10	Y10	Z10	X11	Y11	Z11	X12	Y12	Z12	X13	Y13	Z13	X14	Y14	Z14	X15	Y15	Z15	X16	Y16	Z16	X17	Y17	Z17	X18	Y18	Z18	X19	Y19	Z19	

336	3.350	-433.46909	1504.17871	104.31062	-559.76160	1600.18555	-153.42220	-411.93561	1550.91162	-100.43951	-573.46643	1539.55054	58.83673	-382.09048	1325.06458	-189.23860	-700.55981	1336.54700	-13.47707	-474.60623	1214.97180	16.10152	-569.35883	1382.39587	-141.88606	-331.39581	989.69849	-225.24654	-810.41351	1002.79352	11.24662	-305.67096	809.10205	-121.95503	-755.77496	823.22510	139.85083	-413.90253	849.36414	-56.07317	-634.56616	868.69653	64.94190	-615.95575	929.54034	-189.73051	-340.49579	479.45148	73.36049	-659.94879	435.30316	21.07822	-452.43835	180.92365	-44.78641	-691.77161	103.63115	-39.74433	
337	3.360	-429.11938	1504.48743	112.36073	-555.81677	1599.66125	-144.94260	-407.65549	1549.66980	-92.20304	-570.39008	1539.80286	66.06182	-379.55859	1324.56152	-182.40666	-696.21570	1336.41235	-3.58111	-469.99643	1214.60400	22.81742	-565.89063	1381.89294	-133.28069	-329.32022	990.06390	-219.63829	-806.13611	1002.89758	22.43207	-302.09717	808.39587	-117.11561	-750.87189	823.89502	150.48769	-410.68857	848.92438	-50.07006	-629.64960	868.08044	72.81068	-613.76288	929.42365	-182.10593	-333.52240	481.50433	80.56338	-657.88788	434.70581	24.63078	-438.17435	175.60403	-23.91144	-691.42426	103.90548	-38.89696	
338	3.370	-424.12631	1504.10193	120.08655	-551.88147	1599.14941	-137.29996	-403.70090	1549.53491	-83.94110	-564.49207	1539.25977	74.40790	-376.31650	1323.94336	-176.10042	-691.45868	1336.36316	6.36257	-465.01700	1214.23462	30.88396	-562.04443	1381.73291	-124.90366	-326.82913	988.80396	-213.73940	-801.62988	1002.79596	33.14103	-298.33011	807.89227	-113.06128	-743.86481	823.81256	161.34253	-407.55411	849.11011	-43.74239	-625.98090	867.98157	80.41447	-611.44885	929.76019	-174.83669	-327.46429	482.95325	87.31960	-656.24170	434.03482	27.71054	-423.48401	169.56827	-3.11449	-691.38123	104.45854	-38.49938	
339	3.380	-418.28876	1503.02979	127.22795	-547.74011	1598.39502	-128.64055	-399.30319	1549.07446	-77.56115	-560.26428	1538.79517	82.70895	-372.97568	1323.72742	-168.20515	-686.78754	1335.92590	16.28557	-461.01709	1212.56677	37.14948	-559.17242	1382.24854	-117.39288	-324.54358	988.63385	-208.56827	-797.33386	1002.37360	43.98330	-294.81528	807.28369	-107.89427	-738.00812	824.61267	171.72768	-402.93594	848.50476	-36.94368	-622.02429	866.32031	88.92098	-608.55103	929.00635	-166.90753	-321.77432	484.18967	93.08604	-654.80652	433.20282	30.71570	-407.35181	163.85915	16.83002	-690.89587	103.89152	-37.52368	
340	3.390	-413.52075	1502.88977	135.09315	-543.65924	1597.41931	-121.16926	-395.17834	1547.83826	-69.69276	-554.42719	1538.12854	91.53188	-369.80896	1322.97034	-161.89284	-681.88110	1335.57898	25.70152	-455.99692	1210.90784	45.03485	-555.37793	1381.72717	-108.64841	-322.41269	987.53174	-202.86125	-792.64923	1002.49512	54.68929	-291.25665	806.83856	-102.93851	-732.28394	824.64709	183.17934	-399.78052	848.31641	-30.28385	-618.57306	866.05933	95.81561	-605.73279	928.84607	-159.20676	-316.66345	484.78537	98.87756	-652.93488	432.62918	34.34769	-392.35202	158.76823	36.79301	-690.06543	103.73700	-37.53651	
341	3.400	-408.43784	1502.20642	143.07669	-539.38770	1596.48096	-113.31561	-390.42670	1547.55859	-63.09054	-549.71747	1537.67236	99.93300	-366.21487	1321.87256	-154.95009	-676.75787	1334.93506	35.16574	-451.83014	1210.02734	51.17426	-551.14172	1380.96790	-99.92019	-320.79654	986.86438	-197.39417	-787.50177	1001.66742	65.46082	-288.40045	805.43994	-98.08447	-725.54614	824.55786	194.16130	-396.25906	848.44952	-23.09074	-613.85071	865.10217	103.11922	-602.22729	928.58038	-151.74251	-311.50809	484.11975	103.99744	-650.97736	431.42737	38.18486	-375.87854	154.01888	57.25694	-689.69635	104.09638	-36.74944	
342	3.410	-403.14606	1501.75781	150.81004	-534.95612	1595.76892	-105.64163	-386.26892	1546.11133	-53.54953	-545.00403	1536.87659	107.81979	-362.62796	1320.92688	-147.43788	-671.75342	1334.48962	44.38574	-446.79688	1208.93164	58.93942	-546.28424	1379.82532	-90.85142	-318.97186	985.97009	-190.46230	-782.49640	1000.63776	76.01197	-284.41171	804.59674	-93.54024	-719.19885	824.98315	205.02618	-392.89706	847.62628	-16.03798	-610.89838	862.29150	103.77767	-599.05090	928.21533	-144.65265	-306.98309	483.44742	109.07343	-649.05719	430.69434	40.89159	-358.89276	149.98663	76.39671	-688.93292	104.75262	-36.00084	
343	3.420	-397.63431	1500.50525	158.39113	-530.63104	1594.19666	-97.23654	-381.13824	1545.40991	-46.77628	-539.30939	1535.95813	116.17300	-358.79019	1319.96948	-139.87103	-666.87805	1333.78540	53.04590	-442.34677	1207.83936	66.30981	-542.78778	1379.78711	-83.11983	-315.08646	984.79407	-184.64595	-776.99658	999.89093	86.51041	-281.22485	802.90344	-87.90964	-712.22632	823.83691	215.22975	-388.84406	847.73755	-8.27036	-605.97778	865.12219	117.86163	-595.18585	927.06818	-136.81757	-302.40564	481.13553	113.37517	-646.49762	430.27258	45.58664	-342.52249	145.73969	95.07068	-688.20374	104.65212	-36.03580	
